<svg width="156" height="123" viewBox="0 0 156 123" fill="none" xmlns="http://www.w3.org/2000/svg">
<path d="M14.8209 116.48C12.3943 116.48 10.2476 115.907 8.38094 114.76C6.51427 113.587 5.06094 111.933 4.02094 109.8C2.98094 107.64 2.46094 105.08 2.46094 102.12C2.46094 99.2667 2.98094 96.7467 4.02094 94.56C5.0876 92.3467 6.58094 90.6267 8.50094 89.4C10.4476 88.1467 12.7143 87.52 15.3009 87.52C16.6343 87.52 17.8476 87.6533 18.9409 87.92C20.0343 88.16 21.0609 88.5067 22.0209 88.96L20.8609 92.16C20.0343 91.76 19.1809 91.44 18.3009 91.2C17.4476 90.96 16.4343 90.84 15.2609 90.84C13.5543 90.84 12.0209 91.28 10.6609 92.16C9.3276 93.04 8.27427 94.3067 7.50094 95.96C6.7276 97.6133 6.34094 99.6133 6.34094 101.96C6.34094 104.2 6.71427 106.16 7.46094 107.84C8.23427 109.52 9.2876 110.827 10.6209 111.76C11.9809 112.693 13.5276 113.16 15.2609 113.16C16.5676 113.16 17.7009 113 18.6609 112.68C19.6209 112.36 20.5543 111.947 21.4609 111.44L22.6209 114.6C21.6343 115.133 20.5009 115.587 19.2209 115.96C17.9676 116.307 16.5009 116.48 14.8209 116.48ZM27.4109 116V86.4H31.0109V98.52C31.7576 97.4267 32.7043 96.52 33.8509 95.8C34.9976 95.08 36.3443 94.72 37.8909 94.72C40.2376 94.72 41.9843 95.4267 43.1309 96.84C44.3043 98.2533 44.8909 100.12 44.8909 102.44V116H41.2909V102.84C41.2909 101.347 40.9443 100.147 40.2509 99.24C39.5576 98.3333 38.5843 97.88 37.3309 97.88C36.1043 97.88 34.9309 98.32 33.8109 99.2C32.7176 100.053 31.7843 101.067 31.0109 102.24V116H27.4109ZM59.0428 116.48C57.3095 116.48 55.7361 116.04 54.3228 115.16C52.9095 114.28 51.7761 113.04 50.9228 111.44C50.0961 109.813 49.6828 107.907 49.6828 105.72C49.6828 103.64 50.0961 101.773 50.9228 100.12C51.7761 98.4667 52.9361 97.16 54.4028 96.2C55.8961 95.2133 57.6028 94.72 59.5228 94.72C60.7228 94.72 61.8028 94.9333 62.7628 95.36C63.7495 95.76 64.6028 96.2667 65.3228 96.88V95.2H68.6028V110.96C68.6028 111.973 68.8428 112.64 69.3228 112.96C69.8295 113.253 70.3761 113.4 70.9628 113.4L70.2028 116.2C67.6428 116.2 66.0961 115.16 65.5628 113.08C64.9495 113.933 64.1095 114.72 63.0428 115.44C62.0028 116.133 60.6695 116.48 59.0428 116.48ZM59.8428 113.28C60.8561 113.28 61.8161 113.04 62.7228 112.56C63.6295 112.053 64.3895 111.427 65.0028 110.68V99.52C64.2828 99.0133 63.4828 98.6133 62.6028 98.32C61.7495 98 60.8428 97.84 59.8828 97.84C58.6028 97.84 57.4695 98.1733 56.4828 98.84C55.5228 99.48 54.7628 100.387 54.2028 101.56C53.6428 102.707 53.3628 104.053 53.3628 105.6C53.3628 107.093 53.6428 108.427 54.2028 109.6C54.7628 110.747 55.5361 111.653 56.5228 112.32C57.5095 112.96 58.6161 113.28 59.8428 113.28ZM83.0503 116.48C81.0503 116.48 79.4636 115.827 78.2903 114.52C77.1436 113.187 76.5703 111.293 76.5703 108.84V99.08H72.9703V95.96H76.6503L77.4103 89.4H80.1703V95.96H85.9303V99.08H80.1703V109.12C80.1703 110.667 80.4903 111.747 81.1303 112.36C81.797 112.973 82.5836 113.28 83.4903 113.28C84.157 113.28 84.7836 113.173 85.3703 112.96C85.9836 112.747 86.5436 112.493 87.0503 112.2L88.0503 115.08C87.517 115.4 86.797 115.707 85.8903 116C84.9836 116.32 84.037 116.48 83.0503 116.48ZM101.029 116.48C99.8288 116.48 98.6954 116.267 97.6288 115.84C96.5888 115.387 95.7221 114.867 95.0288 114.28V116H91.6688V86.4H95.2688V97.36C95.8021 96.7467 96.5754 96.16 97.5888 95.6C98.6288 95.0133 99.8554 94.72 101.269 94.72C102.869 94.72 104.362 95.1467 105.749 96C107.162 96.8267 108.295 98.04 109.149 99.64C110.002 101.213 110.429 103.133 110.429 105.4C110.429 107.053 110.162 108.56 109.629 109.92C109.095 111.28 108.375 112.453 107.469 113.44C106.589 114.4 105.589 115.147 104.469 115.68C103.349 116.213 102.202 116.48 101.029 116.48ZM100.069 113.28C101.375 113.28 102.522 112.96 103.509 112.32C104.522 111.68 105.309 110.773 105.869 109.6C106.455 108.427 106.749 107.067 106.749 105.52C106.749 103.92 106.455 102.547 105.869 101.4C105.309 100.253 104.549 99.3733 103.589 98.76C102.655 98.1467 101.615 97.84 100.469 97.84C99.3221 97.84 98.2821 98.1333 97.3488 98.72C96.4421 99.28 95.7488 99.8933 95.2688 100.56V111.68C95.8821 112.16 96.6021 112.547 97.4288 112.84C98.2554 113.133 99.1354 113.28 100.069 113.28ZM124.179 116.48C122.205 116.48 120.432 116.027 118.859 115.12C117.285 114.187 116.045 112.907 115.139 111.28C114.259 109.627 113.819 107.733 113.819 105.6C113.819 103.36 114.272 101.427 115.179 99.8C116.085 98.1733 117.325 96.92 118.899 96.04C120.472 95.16 122.232 94.72 124.179 94.72C126.125 94.72 127.872 95.16 129.419 96.04C130.992 96.92 132.232 98.1733 133.139 99.8C134.072 101.4 134.539 103.307 134.539 105.52C134.539 107.733 134.085 109.667 133.179 111.32C132.272 112.947 131.032 114.213 129.459 115.12C127.912 116.027 126.152 116.48 124.179 116.48ZM124.179 113.28C126.285 113.28 127.925 112.573 129.099 111.16C130.272 109.72 130.859 107.867 130.859 105.6C130.859 104.213 130.565 102.947 129.979 101.8C129.392 100.627 128.592 99.6933 127.579 99C126.592 98.28 125.459 97.92 124.179 97.92C122.072 97.92 120.432 98.6133 119.259 100C118.085 101.387 117.499 103.227 117.499 105.52C117.499 106.907 117.792 108.2 118.379 109.4C118.965 110.573 119.752 111.52 120.739 112.24C121.752 112.933 122.899 113.28 124.179 113.28ZM152.419 116.36L145.419 107.68L138.499 116.28L135.939 114.04L143.339 105.44L136.219 97.2L139.019 94.76L145.459 103.08L151.779 94.92L154.459 97.2L147.539 105.28L155.139 114.04L152.419 116.36Z" fill="#001815"/>
<path d="M73.5324 71C65.6659 71 59.4852 68.6445 54.9901 63.9336C50.6074 59.1106 48.416 52.4368 48.416 43.9123C48.416 35.5 50.2141 27.985 53.8101 21.3673C57.4062 14.7496 62.3508 9.53396 68.6439 5.72037C74.9371 1.90679 82.073 0 90.0518 0C95.4459 0 99.7163 0.897318 102.863 2.69195C106.009 4.48658 107.583 6.95419 107.583 10.0948C107.583 12.8989 106.234 15.6469 103.537 18.3389C102.526 19.3483 101.177 20.3017 99.4915 21.199C97.9182 21.9842 96.6821 22.3768 95.7831 22.3768C94.7717 22.3768 93.9288 21.9842 93.2546 21.199C92.1308 19.9652 90.6699 18.7875 88.8719 17.6659C87.0738 16.5442 84.5453 15.9834 81.2864 15.9834C75.7799 15.9834 71.2848 17.8902 67.8011 21.7038C64.3174 25.4052 62.5756 30.2844 62.5756 36.3412C62.5756 41.8373 64.1488 46.2678 67.2954 49.6327C70.442 52.9976 74.5999 54.6801 79.7693 54.6801C82.4664 54.6801 85.3882 54.2314 88.5347 53.3341C91.7937 52.3246 94.6593 50.9226 97.1316 49.128C98.3677 48.0063 99.6601 47.4455 101.009 47.4455C103.256 47.4455 104.38 48.8476 104.38 51.6517C104.38 55.3531 102.526 58.8862 98.8172 62.2512C96.0078 64.831 92.2432 66.9621 87.5233 68.6445C82.9159 70.2148 78.2522 71 73.5324 71Z" fill="#001815"/>
<path d="M73.6604 69.3095C66.0188 69.3095 60.0146 67.0101 55.648 62.4114C51.3905 57.7032 49.2617 51.1883 49.2617 42.8668C49.2617 34.6548 51.0084 27.3187 54.5017 20.8586C57.995 14.3984 62.7984 9.30696 68.9117 5.58418C75.025 1.86139 81.9571 0 89.7079 0C94.9479 0 99.0962 0.875953 102.153 2.62785C105.21 4.37975 106.738 6.78861 106.738 9.85443C106.738 12.5918 105.428 15.2744 102.808 17.9022C101.825 18.8877 100.515 19.8184 98.8779 20.6943C97.3496 21.4608 96.1488 21.844 95.2754 21.844C94.2929 21.844 93.4742 21.4608 92.8192 20.6943C91.7275 19.4899 90.3083 18.3402 88.5617 17.2453C86.815 16.1503 84.3588 15.6029 81.1929 15.6029C75.8438 15.6029 71.4771 17.4642 68.0929 21.187C64.7088 24.8003 63.0167 29.5633 63.0167 35.476C63.0167 40.8412 64.545 45.1662 67.6017 48.451C70.6584 51.7358 74.6975 53.3782 79.7192 53.3782C82.3392 53.3782 85.1775 52.9402 88.2342 52.0643C91.4 51.0788 94.1838 49.7102 96.5854 47.9583C97.7863 46.8633 99.0417 46.3158 100.352 46.3158C102.535 46.3158 103.627 47.6845 103.627 50.4219C103.627 54.0352 101.825 57.4842 98.2229 60.769C95.4938 63.2874 91.8367 65.3678 87.2517 67.0102C82.7758 68.5431 78.2454 69.3095 73.6604 69.3095Z" fill="#24786D"/>
</svg>
